<?xml version="1.0" standalone="no"?>
<!DOCTYPE svg PUBLIC "-//W3C//DTD SVG 20010904//EN"
 "http://www.w3.org/TR/2001/REC-SVG-20010904/DTD/svg10.dtd">
<svg version="1.0" xmlns="http://www.w3.org/2000/svg"
 width="940.000000pt" height="530.000000pt" viewBox="0 0 940.000000 530.000000"
 preserveAspectRatio="xMidYMid meet">

<g transform="translate(0.000000,530.000000) scale(0.100000,-0.100000)"
fill="#000000" stroke="none">
<path d="M0 2650 l0 -2650 2580 0 2581 0 20 48 c12 26 27 85 34 132 14 88 41
170 56 170 13 0 11 -14 -3 -28 -17 -17 6 -32 48 -32 17 0 48 -7 67 -15 22 -9
38 -11 42 -5 14 23 118 -12 133 -46 7 -13 18 -24 27 -24 8 0 22 -11 31 -25 20
-30 37 -32 64 -5 l20 20 0 -49 c0 -26 3 -69 6 -95 l7 -46 1843 0 1844 0 0
2650 0 2650 -4700 0 -4700 0 0 -2650z m8196 1899 c2 -18 6 -34 9 -37 2 -2 -3
-11 -11 -19 -22 -22 -15 -111 9 -119 21 -7 39 6 20 13 -18 7 -16 30 3 37 9 3
23 1 32 -4 14 -9 13 -10 -5 -5 -16 5 -23 2 -23 -8 0 -9 6 -18 13 -21 10 -5 10
-7 0 -12 -23 -10 -14 -34 11 -34 56 0 75 -29 34 -51 -13 -7 -27 -18 -31 -25
-4 -8 -15 -14 -22 -14 -8 0 -15 -7 -15 -15 0 -9 -11 -20 -24 -25 -13 -5 -28
-15 -32 -22 -6 -10 -4 -10 9 1 19 15 23 1 8 -27 -11 -21 17 -106 48 -151 12
-16 21 -36 21 -45 0 -10 7 -16 16 -14 10 2 19 -3 22 -11 3 -10 -1 -12 -17 -8
-11 3 -21 1 -21 -5 0 -5 -14 -8 -32 -6 -30 3 -32 5 -35 48 -2 25 -9 50 -16 55
-15 10 -60 92 -62 110 -2 22 -41 75 -55 75 -9 0 -20 4 -25 9 -6 6 -32 12 -60
14 -27 3 -58 8 -69 12 -10 4 -21 4 -25 -1 -3 -5 -20 -17 -37 -26 -30 -17 -32
-17 -38 -1 -6 14 -9 14 -22 -5 -8 -12 -22 -22 -30 -22 -14 0 -14 3 14 57 15
29 15 33 -3 33 -8 0 -15 5 -15 10 0 6 -7 10 -15 10 -8 0 -21 13 -30 29 -8 17
-25 37 -37 45 -16 12 -22 26 -23 64 -2 61 12 72 110 84 141 18 155 20 155 29
0 5 9 9 19 9 11 0 21 6 24 13 3 9 7 9 19 -1 16 -13 48 -7 48 10 0 6 8 7 18 3
9 -4 22 -7 27 -7 26 1 110 15 114 18 10 9 24 -16 27 -47z m54 -14 c11 -21 18
-41 16 -43 -3 -2 -17 20 -31 50 -15 29 -22 48 -16 42 6 -5 20 -28 31 -49z m60
-143 c0 -7 -4 -10 -10 -7 -5 3 -10 16 -10 28 0 18 2 19 10 7 5 -8 10 -21 10
-28z m-30 -32 c0 -5 -2 -10 -4 -10 -3 0 -8 5 -11 10 -3 6 -1 10 4 10 6 0 11
-4 11 -10z m-583 -88 c-1 -9 -6 -22 -10 -28 -4 -7 -1 -17 7 -23 16 -13 16 -53
0 -58 -7 -2 -22 13 -35 33 l-22 37 26 19 c17 12 24 25 20 35 -4 11 -2 14 5 9
7 -4 11 -15 9 -24z m651 -23 c-2 -15 -11 -23 -30 -25 -16 -1 -28 1 -28 4 0 6
49 41 58 42 2 0 2 -10 0 -21z m-995 -58 c27 -11 57 -38 57 -52 0 -5 -20 2 -45
16 -53 32 -89 30 -93 -4 -2 -15 0 -21 7 -17 8 5 9 -6 4 -36 -13 -88 -2 -134
41 -170 18 -15 19 -17 4 -18 -33 0 -78 111 -78 193 0 83 35 113 103 88z m635
-25 c12 -11 2 -15 -66 -26 -111 -17 -135 2 -48 39 44 19 87 14 114 -13z m287
4 c-3 -5 -10 -10 -16 -10 -5 0 -9 5 -9 10 0 6 7 10 16 10 8 0 12 -4 9 -10z
m-495 -30 c0 -5 -7 -7 -15 -4 -8 4 -12 10 -9 15 6 11 24 2 24 -11z m-426 -11
c34 -16 41 -40 18 -59 -11 -8 -22 -24 -26 -34 -6 -19 -6 -19 12 -3 26 23 37
21 40 -8 1 -14 3 -36 5 -50 1 -16 11 -29 30 -36 26 -11 38 -39 17 -39 -5 0
-10 -4 -10 -10 0 -5 5 -9 11 -7 6 1 14 -4 16 -10 3 -7 -2 -13 -10 -13 -9 0
-17 -5 -19 -12 -3 -7 -12 -9 -22 -5 -10 4 -16 13 -13 21 4 9 0 12 -12 9 -26
-7 -34 23 -14 54 l17 26 -26 -6 c-21 -6 -32 -2 -48 15 -18 20 -21 30 -14 68 3
25 6 60 5 78 -1 35 5 38 43 21z m880 5 c9 -3 16 -10 16 -16 0 -14 -43 -5 -48
10 -4 13 7 15 32 6z m-146 -21 c5 -10 12 -41 15 -70 6 -49 4 -54 -24 -73 -39
-28 -41 -82 -5 -105 23 -15 27 -15 50 0 22 15 30 15 63 3 20 -7 48 -23 61 -35
l23 -21 -23 -16 c-12 -9 -35 -16 -49 -16 -15 0 -48 -9 -74 -20 -26 -11 -57
-20 -69 -20 -13 0 -26 -3 -30 -7 -4 -5 -16 -8 -27 -8 -10 0 -19 -3 -19 -7 -1
-39 2 -48 14 -48 7 0 19 7 26 15 15 19 40 20 40 2 0 -22 73 -41 122 -33 80 13
82 13 81 -14 -1 -63 -4 -76 -24 -88 -17 -11 -20 -11 -13 0 6 10 4 10 -9 -1 -9
-7 -14 -17 -12 -22 3 -4 -24 -7 -60 -6 -49 1 -69 -3 -75 -13 -8 -12 -13 -13
-30 -2 -11 6 -26 12 -34 12 -8 0 -26 11 -40 25 -14 14 -31 23 -38 20 -7 -2
-29 9 -48 25 -19 17 -29 30 -22 30 7 0 12 5 12 10 0 6 -10 8 -23 5 -34 -9 -51
15 -36 49 9 20 9 29 -1 41 -10 12 -10 15 3 15 9 0 19 -5 22 -11 9 -14 31 17
39 58 6 27 3 37 -17 57 -14 14 -22 27 -19 30 3 3 -2 6 -11 6 -9 0 -17 6 -17
14 0 14 -36 46 -52 46 -5 0 -8 -9 -8 -21 0 -12 -5 -19 -12 -16 -7 2 -13 11
-13 21 0 9 -6 21 -14 25 -9 6 -10 11 -2 15 6 4 11 12 11 18 0 6 -6 6 -15 -2
-9 -7 -16 -11 -18 -9 -19 34 -27 50 -27 56 0 5 5 0 11 -9 12 -22 29 -23 29 -3
0 8 -11 17 -25 21 -28 7 -28 30 -1 27 12 -1 15 4 12 14 -5 12 -2 14 16 8 13
-4 46 -10 75 -12 37 -4 50 -8 47 -18 -3 -7 -1 -16 5 -20 7 -3 11 2 11 14 0 14
6 21 19 21 11 0 22 4 25 9 6 10 56 2 56 -9 0 -4 11 -5 25 -2 27 5 32 -7 13
-26 -15 -15 -3 -16 23 -1 11 6 19 18 17 29 -3 20 28 60 48 60 7 0 17 -8 22
-17z m-114 -1 c2 -4 -4 -13 -15 -20 -15 -10 -19 -10 -19 1 0 24 23 36 34 19z
m-308 -27 c-32 -30 -45 -32 -43 -6 0 11 5 17 9 15 4 -3 16 0 25 5 32 19 36 11
9 -14z m656 -6 c14 -7 24 -7 34 2 11 9 14 7 14 -14 0 -14 6 -27 13 -30 9 -3
11 -35 9 -123 -3 -126 -8 -158 -23 -149 -12 8 -12 52 1 60 15 9 12 62 -4 68
-7 3 -19 0 -25 -6 -16 -16 -27 1 -13 23 16 26 15 50 -1 50 -16 0 -55 43 -79
87 -10 18 -18 34 -18 35 0 8 77 5 92 -3z m-852 -100 c0 -5 -4 -9 -10 -9 -5 0
-10 7 -10 16 0 8 5 12 10 9 6 -3 10 -10 10 -16z m695 -59 c-3 -5 -15 -10 -26
-10 -11 0 -17 5 -14 10 3 6 15 10 26 10 11 0 17 -4 14 -10z m-525 -44 c0 -7 7
-19 15 -26 8 -7 15 -19 15 -28 0 -8 7 -24 17 -34 18 -20 4 -25 -15 -6 -7 7
-12 8 -12 2 0 -6 11 -21 24 -33 13 -12 32 -39 42 -59 19 -38 50 -72 66 -72 4
0 8 -7 8 -15 0 -9 9 -15 23 -15 14 0 18 -3 10 -8 -8 -5 5 -13 35 -21 56 -17
33 -26 -36 -16 -37 5 -54 16 -87 51 -23 24 -47 44 -53 44 -7 0 -12 3 -12 8 -1
13 -40 55 -47 48 -3 -3 1 -14 11 -25 14 -15 14 -20 3 -30 -11 -9 -18 -4 -33
24 -10 19 -22 35 -25 35 -4 0 -9 12 -11 28 -3 15 -9 36 -13 46 -7 16 -5 18 8
13 11 -4 14 -2 10 9 -3 7 -11 14 -19 14 -8 0 -14 9 -14 20 0 11 7 20 15 20 8
0 15 5 15 10 0 6 9 10 20 10 11 0 20 -5 20 -11 0 -5 -4 -8 -9 -4 -5 3 -12 1
-16 -4 -6 -10 23 -51 36 -51 8 0 3 65 -6 80 -3 5 -1 10 4 10 6 0 11 -6 11 -14z
m139 -45 c-3 -6 -10 -7 -18 -2 -7 5 -10 14 -6 21 9 14 29 -2 24 -19z m-1411
-8 c11 3 142 -85 142 -95 0 -5 4 -7 9 -3 5 3 12 1 16 -5 3 -5 2 -10 -3 -10 -6
0 3 -14 19 -31 36 -39 31 -50 -6 -15 -16 15 -32 26 -37 26 -13 0 29 -57 50
-70 9 -5 12 -10 7 -10 -6 0 -16 5 -23 12 -23 23 -22 0 2 -53 13 -30 26 -63 29
-74 3 -11 8 -29 12 -40 5 -16 5 -17 -4 -5 -9 12 -11 12 -11 1 0 -11 -5 -9 -22
5 -12 10 -18 13 -14 6 5 -8 9 -27 10 -43 1 -17 7 -34 13 -37 6 -4 20 -27 32
-50 22 -44 22 -44 2 -37 -23 7 -28 -4 -9 -23 23 -23 -3 -25 -33 -3 -35 26 -51
21 -24 -9 27 -30 8 -24 -39 12 l-41 32 43 -45 c23 -25 42 -49 42 -54 0 -6 -6
-3 -13 5 -7 8 -28 29 -46 45 -27 25 -32 26 -22 8 15 -29 14 -43 -2 -17 -7 11
-24 36 -38 55 -15 19 -41 74 -59 122 -18 48 -51 112 -72 142 -41 58 -41 71 1
31 15 -13 36 -27 49 -31 l23 -7 -20 41 c-28 55 -26 60 9 26 29 -28 30 -28 30
-7 0 12 -11 41 -26 63 -21 35 -22 39 -6 30 11 -6 22 -7 26 -4 4 4 9 -3 13 -15
3 -12 9 -22 13 -22 4 0 11 -15 14 -34 4 -19 10 -36 14 -38 18 -7 52 -68 52
-92 0 -14 5 -26 11 -26 15 0 6 169 -11 199 -6 12 -36 37 -68 57 -57 36 -92 67
-92 80 0 4 -8 13 -17 20 -14 11 -9 11 25 -1 24 -8 47 -14 50 -12z m-353 -3 c8
-13 -5 -13 -25 0 -13 8 -13 10 2 10 9 0 20 -4 23 -10z m2299 -5 c-6 -16 -24
-21 -24 -7 0 11 11 22 21 22 5 0 6 -7 3 -15z m-474 -5 c0 -5 -8 -10 -17 -10
-15 0 -16 2 -3 10 19 12 20 12 20 0z m-70 -20 c0 -5 -4 -10 -10 -10 -5 0 -10
5 -10 10 0 6 5 10 10 10 6 0 10 -4 10 -10z m-3675 -136 c4 -69 5 -127 2 -130
-3 -3 -62 -8 -131 -11 l-126 -6 0 -82 c0 -45 3 -117 7 -160 l6 -78 129 7 128
7 0 -118 c0 -65 3 -127 6 -139 5 -20 1 -21 -127 -28 -73 -4 -134 -8 -134 -9 0
-1 2 -78 5 -172 l5 -170 130 0 130 0 2 -130 c1 -81 -1 -123 -7 -110 -5 11 -9
33 -9 48 -1 24 -3 26 -15 14 -11 -11 -60 -13 -267 -10 -140 3 -256 6 -258 9
-3 2 -10 -8 -16 -23 -16 -37 -23 135 -30 697 -3 228 -8 472 -11 542 l-4 127
52 5 c52 5 205 19 398 35 52 5 102 9 111 10 14 1 18 -17 24 -125z m3755 95 c0
-5 -4 -9 -10 -9 -5 0 -10 7 -10 16 0 8 5 12 10 9 6 -3 10 -10 10 -16z m-1854
-26 c-8 -9 -46 18 -40 28 4 6 13 4 25 -7 11 -9 17 -19 15 -21z m2245 4 c-6 -8
-8 -17 -4 -20 3 -4 0 -7 -8 -8 -8 0 -26 -3 -41 -5 -21 -3 -28 -1 -28 11 0 18
5 19 30 5 15 -8 21 -6 30 10 6 11 16 20 22 20 7 0 7 -4 -1 -13z m59 -7 c0 -5
-4 -10 -10 -10 -5 0 -10 5 -10 10 0 6 5 10 10 10 6 0 10 -4 10 -10z m-5011
-16 c44 -9 96 -64 109 -116 6 -24 14 -80 16 -125 l6 -81 -129 -51 c-71 -27
-137 -51 -148 -53 -16 -3 -18 6 -21 95 l-3 97 -29 0 -30 0 0 -109 0 -108 165
-108 c116 -75 170 -116 182 -138 12 -23 17 -82 24 -246 11 -285 4 -337 -52
-386 -17 -16 -21 -16 -17 -4 6 15 -7 16 -115 13 -225 -6 -362 -16 -369 -27
-11 -18 -57 31 -68 72 -5 20 -12 87 -16 148 l-7 113 44 18 c77 32 229 85 234
81 2 -3 6 -56 8 -119 5 -115 5 -115 31 -118 l26 -3 0 138 -1 138 -155 104
c-102 69 -161 115 -172 135 -14 26 -17 63 -17 241 0 142 4 224 13 252 17 57
67 108 120 123 86 23 305 37 371 24z m4841 -4 c0 -5 -4 -10 -10 -10 -5 0 -10
5 -10 10 0 6 5 10 10 10 6 0 10 -4 10 -10z m-2213 -6 c-3 -3 -12 -4 -19 -1 -8
3 -5 6 6 6 11 1 17 -2 13 -5z m-248 -31 c-40 -47 -42 -49 -34 -33 10 19 47 60
53 60 3 0 -5 -12 -19 -27z m2682 -44 c-1 -27 -6 -60 -12 -72 -7 -17 -8 -14 -4
18 2 22 5 58 5 79 0 22 3 36 7 33 4 -4 6 -30 4 -58z m-5769 30 c57 -15 87 -47
102 -107 20 -76 34 -1193 15 -1174 -7 6 -33 12 -58 12 -26 0 -75 5 -110 10
-56 8 -66 7 -77 -8 -11 -14 -13 28 -14 241 0 270 -1 275 -44 242 -18 -13 -18
-24 -12 -163 9 -174 -1 -333 -18 -311 -13 17 -201 16 -221 -1 -21 -18 -27 154
-23 640 3 308 8 456 17 482 28 89 85 119 251 137 121 12 150 12 192 0z m3418
-45 c0 -17 60 -45 103 -49 36 -3 73 -38 97 -93 11 -24 34 -60 51 -80 17 -19
38 -51 46 -71 8 -19 25 -49 37 -65 13 -17 33 -59 46 -93 19 -54 21 -73 15
-141 -10 -115 -37 -207 -61 -207 -11 0 -19 -7 -19 -17 0 -21 -35 -58 -110
-117 -86 -67 -106 -75 -151 -64 -35 8 -39 13 -45 47 -6 37 -4 41 55 100 33 34
70 77 81 96 11 19 30 39 43 45 12 5 22 13 22 18 0 18 -36 18 -114 -2 -46 -11
-110 -23 -142 -26 -55 -6 -58 -5 -40 9 11 9 28 16 38 16 10 0 18 5 18 10 0 6
-5 10 -11 10 -23 0 -1 23 31 34 22 7 36 19 38 31 3 16 1 18 -9 8 -7 -7 -20
-13 -29 -13 -8 0 -27 -8 -40 -17 -14 -10 -33 -16 -44 -15 -13 3 -16 0 -11 -10
5 -8 2 -8 -8 2 -12 12 -16 47 -20 173 -2 102 -8 162 -15 169 -9 9 -12 2 -12
-29 0 -23 -4 -45 -10 -48 -5 -3 -10 1 -10 9 0 9 -6 13 -14 10 -16 -6 -25 27
-32 118 -2 29 -5 71 -7 93 -4 49 1 65 19 65 8 0 14 4 14 9 0 5 11 23 25 39 28
33 77 47 108 30 18 -9 24 -7 36 10 19 25 31 28 31 6z m-3940 -609 c0 -338 -4
-615 -8 -615 -5 0 -12 3 -15 7 -6 6 -112 5 -167 -2 -14 -2 -28 -4 -32 -4 -5
-1 -8 -9 -9 -18 -1 -12 -4 -10 -9 7 -4 14 -8 130 -9 258 -1 127 -4 232 -7 232
-3 0 -13 -4 -23 -9 -16 -9 -17 -23 -14 -138 4 -140 -10 -370 -21 -338 -6 18
-15 20 -93 18 -65 -2 -91 -7 -105 -20 -18 -16 -19 -5 -18 589 l2 607 51 6 c29
4 81 7 117 8 l65 2 0 -255 c0 -221 2 -255 15 -252 8 2 18 7 23 11 7 7 14 169
16 383 l1 127 63 4 c34 2 88 4 120 5 l57 2 0 -615z m4580 605 c0 -5 -2 -10 -4
-10 -3 0 -8 5 -11 10 -3 6 -1 10 4 10 6 0 11 -4 11 -10z m-5242 -51 c54 -19
66 -50 70 -185 l4 -120 -94 -62 c-52 -34 -98 -62 -102 -62 -5 0 -6 49 -4 110
6 113 3 122 -34 112 -19 -5 -21 -48 -22 -590 l-1 -203 25 3 c24 3 25 7 28 69
l3 66 94 51 c52 29 97 52 100 52 10 0 5 -309 -6 -337 -6 -15 -20 -39 -32 -51
-24 -26 -64 -51 -53 -33 5 7 -45 11 -153 13 -127 2 -157 0 -149 -9 13 -16 3
-17 -22 -3 -10 5 -26 30 -36 55 -15 42 -16 86 -12 515 5 469 5 469 29 517 29
57 59 80 119 92 65 13 212 13 248 0z m6569 -15 c-3 -3 -12 -4 -19 -1 -8 3 -5
6 6 6 11 1 17 -2 13 -5z m-7077 -177 l0 -153 -217 -13 c-120 -6 -240 -15 -267
-18 l-49 -6 5 152 c3 84 8 154 10 157 3 2 26 7 51 10 l47 7 0 -72 0 -71 45 0
c49 0 47 -4 50 85 1 28 4 30 48 35 26 4 50 4 52 1 3 -2 5 -28 5 -58 0 -58 5
-61 79 -47 31 6 31 7 31 69 0 70 3 73 68 74 l42 1 0 -153z m4683 111 c-3 -24
-14 -52 -26 -63 l-20 -20 8 20 c4 11 11 34 15 51 7 31 18 54 25 54 2 0 1 -19
-2 -42z m2543 16 c18 -14 18 -14 -6 -3 -31 14 -36 19 -24 19 6 0 19 -7 30 -16z
m210 -21 c-5 -22 2 -39 33 -80 l40 -52 -32 19 c-18 11 -40 20 -49 20 -18 0
-23 11 -11 23 3 4 13 1 21 -6 13 -11 14 -9 1 10 -9 15 -20 21 -31 17 -10 -3
-18 -1 -18 5 0 6 4 11 9 11 5 0 14 14 21 30 16 38 23 39 16 3z m-2696 -70 c0
-48 -3 -64 -10 -53 -11 17 -13 64 -4 98 10 37 14 25 14 -45z m2592 20 c10 -9
18 -20 18 -25 0 -11 -49 24 -50 35 0 12 12 8 32 -10z m-2657 -140 c-3 -18 -10
-35 -16 -38 -6 -4 -8 3 -5 17 3 12 8 50 13 83 l8 60 3 -45 c2 -24 1 -59 -3
-77z m2815 37 c9 -6 17 -5 22 3 4 7 8 -8 8 -33 l0 -45 -21 25 c-42 52 -46 73
-9 50z m-2757 -40 c3 -11 1 -20 -4 -20 -5 0 -9 9 -9 20 0 11 2 20 4 20 2 0 6
-9 9 -20z m1074 -94 c1 -1 -13 -12 -32 -24 -31 -22 -35 -22 -62 -8 -62 32 -57
42 20 38 40 -2 73 -5 74 -6z m-192 -118 c-7 -74 -6 -80 10 -74 18 7 18 -10 0
-74 -7 -22 -4 -20 19 9 26 35 34 31 17 -11 -5 -13 -12 -35 -15 -50 -6 -25 -41
-56 -52 -45 -3 2 0 17 6 32 9 23 8 26 -6 21 -12 -4 -15 -2 -10 9 21 52 21 51
3 36 -10 -8 -19 -12 -22 -9 -11 11 -8 68 5 84 11 12 15 42 14 105 0 88 0 89
19 68 17 -18 18 -29 12 -101z m-5615 8 l0 -83 -31 -7 c-17 -3 -69 -6 -115 -6
-84 0 -84 0 -84 -26 l0 -26 110 3 111 4 4 -82 c3 -45 1 -84 -3 -87 -4 -2 -125
-6 -267 -7 l-260 -2 -3 81 -3 81 93 3 c89 3 93 4 96 27 4 23 4 23 -90 20 -70
-3 -93 -1 -92 9 1 6 2 43 2 81 l2 69 73 6 c39 3 146 10 237 14 91 5 177 10
193 10 l27 2 0 -84z m5800 64 c0 -9 -40 -30 -56 -30 -14 0 0 22 19 30 30 12
37 12 37 0z m-890 -20 c-8 -5 -17 -7 -19 -4 -3 3 1 9 9 14 8 5 17 7 19 4 3 -3
-1 -9 -9 -14z m-196 -26 c10 -4 16 -17 15 -38 -1 -17 -3 -23 -6 -13 -7 29 -20
19 -26 -20 -7 -42 -2 -52 15 -35 27 27 37 12 19 -29 -21 -46 -41 -71 -41 -50
0 7 -4 9 -10 6 -9 -5 -14 21 -12 60 1 20 24 125 27 125 2 0 10 -3 19 -6z m846
-74 c0 -5 -5 -10 -11 -10 -5 0 -7 5 -4 10 3 6 8 10 11 10 2 0 4 -4 4 -10z
m-788 -72 c-7 -7 -12 -8 -12 -2 0 14 12 26 19 19 2 -3 -1 -11 -7 -17z m928
-38 c0 -5 -7 -10 -16 -10 -8 0 -12 5 -9 10 3 6 10 10 16 10 5 0 9 -4 9 -10z
m-456 -24 c-3 -8 -32 -28 -65 -46 -47 -25 -69 -30 -106 -28 -67 4 -66 28 2 42
6 1 17 5 25 9 13 6 123 34 142 36 4 1 5 -5 2 -13z m-462 -38 c-7 -7 -12 -8
-12 -2 0 14 12 26 19 19 2 -3 -1 -11 -7 -17z m168 -53 c8 -11 0 -7 -18 9 -18
17 -32 34 -32 40 0 10 23 -12 50 -49z m240 21 c0 -2 -8 -10 -17 -17 -16 -13
-17 -12 -4 4 13 16 21 21 21 13z m480 -6 c0 -5 -2 -10 -4 -10 -3 0 -8 5 -11
10 -3 6 -1 10 4 10 6 0 11 -4 11 -10z m-23 -53 c-16 -24 -57 -43 -57 -26 0 5
7 9 15 9 8 0 22 11 32 24 23 31 31 25 10 -7z m-823 -3 c3 -8 2 -12 -4 -9 -6 3
-10 10 -10 16 0 14 7 11 14 -7z m701 -26 c4 4 4 -3 1 -15 -5 -17 -2 -23 16
-29 28 -8 40 -25 28 -39 -5 -6 -5 -16 -1 -23 5 -9 12 -9 27 3 15 12 16 16 5
24 -8 5 -9 11 -3 15 17 11 40 -4 47 -31 7 -30 -20 -67 -45 -60 -12 3 -15 -7
-13 -64 0 -37 3 -72 6 -76 10 -17 -86 -61 -128 -60 l-40 2 -5 65 c-5 59 -7 66
-35 80 -16 8 -33 19 -36 24 -4 5 -20 6 -35 2 -22 -5 -25 -4 -12 4 9 5 46 55
83 110 l67 100 32 -20 c18 -11 36 -16 41 -12z m-5957 -60 l3 -48 215 0 214 0
0 -85 0 -85 -220 0 -220 0 0 -28 c0 -28 -2 -29 -50 -31 l-50 -1 0 159 c0 177
-3 171 70 168 34 -2 35 -3 38 -49z m6082 -103 c-7 -8 -17 -15 -22 -15 -6 0 -5
7 2 15 7 8 17 15 22 15 6 0 5 -7 -2 -15z m115 -95 c15 -6 7 -9 -30 -8 -39 0
-45 2 -25 8 32 10 31 10 55 0z m-551 -51 c33 -38 34 -82 4 -104 -37 -26 -5
-36 97 -30 63 4 92 9 97 19 5 8 23 25 40 38 42 29 -89 -125 -237 -281 -111
-116 -252 -285 -290 -345 -11 -18 -30 -45 -43 -61 -62 -78 -84 -257 -57 -459
17 -130 17 -134 -1 -158 -43 -58 -82 -75 -189 -82 l-100 -7 -28 28 c-32 34
-91 229 -106 351 -17 139 19 346 75 430 10 15 27 44 36 65 24 52 148 172 303
292 70 55 148 119 173 143 40 37 50 42 92 42 55 0 58 4 67 92 7 69 26 76 67
27z m614 -58 c12 -6 29 -23 38 -37 14 -21 15 -29 4 -49 -7 -13 -17 -22 -22
-19 -12 8 0 -44 20 -82 14 -29 14 -33 -1 -49 -10 -9 -15 -20 -12 -25 3 -4 -2
-21 -10 -36 -8 -16 -12 -37 -9 -47 3 -10 -1 -19 -10 -23 -19 -7 -22 -44 -3
-44 9 0 8 -3 -2 -9 -10 -7 -11 -13 -2 -30 9 -15 9 -27 1 -41 -7 -14 -7 -20 0
-20 5 0 10 -10 10 -22 1 -21 2 -22 14 -5 18 23 29 22 16 -3 -13 -24 -7 -25 27
-3 l25 17 -7 -44 c-4 -25 -14 -62 -21 -84 -18 -50 -18 -55 5 -64 19 -7 18 -10
-14 -54 -38 -52 -105 -96 -159 -105 -51 -8 -46 7 24 79 62 64 71 82 45 92 -8
3 -15 12 -15 21 0 11 -10 6 -35 -16 -19 -18 -35 -38 -35 -46 0 -7 -7 -16 -15
-19 -14 -6 -54 -81 -59 -112 -6 -32 -61 -112 -78 -112 -10 0 -18 -4 -18 -10 0
-5 -8 -18 -17 -28 -10 -10 -29 -34 -43 -54 -19 -29 -27 -34 -38 -25 -10 8 -16
7 -22 -3 -6 -9 -5 -17 2 -22 9 -5 9 -13 0 -33 -17 -37 -74 -105 -89 -105 -7 0
-13 -3 -13 -8 0 -4 -14 -23 -31 -41 -16 -18 -28 -36 -25 -38 7 -7 -4 -19 -131
-151 -62 -63 -113 -122 -113 -129 0 -15 -79 -93 -95 -93 -6 0 -15 -10 -20 -22
-13 -29 -71 -68 -101 -68 -13 0 -24 -5 -24 -11 0 -6 -10 -9 -22 -7 -22 3 -23
8 -23 83 0 44 4 92 8 107 6 23 4 25 -13 21 -30 -8 -16 20 38 76 66 68 118 140
153 212 17 35 40 76 50 91 11 14 19 33 19 41 0 8 12 27 28 42 15 16 20 25 12
20 -8 -4 -3 5 13 22 15 16 24 32 20 36 -3 4 2 7 11 7 12 0 16 5 12 15 -5 13
49 114 128 241 14 23 26 48 26 57 0 8 20 57 43 108 24 52 47 113 50 136 4 23
27 81 52 129 25 47 45 93 45 101 0 7 16 43 35 79 20 36 34 71 33 78 -2 7 8 29
22 49 60 90 228 136 318 88z m82 -136 c0 -5 -5 -3 -10 5 -5 8 -10 20 -10 25 0
6 5 3 10 -5 5 -8 10 -19 10 -25z m-3525 -115 c236 -225 382 -371 370 -368 -7
2 -87 73 -177 158 -271 257 -328 313 -328 323 0 13 22 -5 135 -113z m710 -137
c220 -232 261 -279 149 -169 -51 48 -95 87 -99 86 -8 -2 -71 68 -190 210 -94
111 -124 153 -68 93 22 -23 116 -122 208 -220z m2296 114 c-10 -9 -11 -8 -5 6
3 10 9 15 12 12 3 -3 0 -11 -7 -18z m-2176 -287 c10 -11 16 -20 13 -20 -3 0
-13 9 -23 20 -10 11 -16 20 -13 20 3 0 13 -9 23 -20z m-1030 -416 c15 -14 25
-27 22 -30 -8 -8 -67 30 -67 44 0 19 14 14 45 -14z m2800 -134 c-9 -16 -18
-30 -21 -30 -2 0 2 14 11 30 9 17 18 30 21 30 2 0 -2 -13 -11 -30z m316 -387
c8 -9 38 -27 67 -39 51 -23 62 -36 42 -49 -13 -8 -50 13 -50 29 0 7 -19 19
-42 26 -51 16 -63 25 -54 39 10 15 21 14 37 -6z m-931 -23 c11 -11 26 -20 34
-20 8 0 18 -9 21 -21 8 -24 8 -24 -28 -33 -24 -6 -34 -1 -64 29 -34 34 -35 36
-17 50 25 19 30 19 54 -5z m75 -10 c3 -5 1 -10 -4 -10 -6 0 -11 5 -11 10 0 6
2 10 4 10 3 0 8 -4 11 -10z m-519 -93 c-15 -32 -16 -32 -16 -6 0 15 3 42 7 60
l6 34 10 -28 c7 -21 5 -37 -7 -60z m1314 -132 c0 -14 -7 -25 -20 -28 -16 -4
-20 0 -20 22 0 15 3 30 6 34 12 12 34 -6 34 -28z m-123 -23 c-8 -9 -17 -26
-20 -37 -2 -11 -5 1 -6 26 -1 53 5 64 26 43 14 -13 14 -17 0 -32z m-61 -29
c-3 -16 -1 -35 4 -43 9 -13 11 -13 20 0 7 12 12 7 25 -22 17 -43 18 -48 7 -48
-5 0 -14 10 -20 23 -11 20 -12 19 -6 -10 5 -30 4 -31 -35 -38 -23 -4 -42 -6
-43 -4 -2 1 -13 -3 -26 -10 -17 -9 -27 -9 -37 -1 -10 8 -14 8 -18 -2 -2 -8 -8
-9 -13 -4 -5 5 -3 11 5 14 26 9 51 42 51 68 0 18 6 28 20 31 11 3 27 21 36 39
20 41 38 45 30 7z m200 -30 c-11 -11 -17 4 -9 23 7 18 8 18 11 1 2 -10 1 -21
-2 -24z m-81 -83 c3 -5 2 -10 -4 -10 -5 0 -13 5 -16 10 -3 6 -2 10 4 10 5 0
13 -4 16 -10z m-30 -10 c3 -5 1 -10 -4 -10 -6 0 -11 5 -11 10 0 6 2 10 4 10 3
0 8 -4 11 -10z m-511 -55 c3 -8 1 -15 -4 -15 -6 0 -10 7 -10 15 0 8 2 15 4 15
2 0 6 -7 10 -15z m156 -68 c0 -13 -29 12 -42 37 -10 19 -8 18 16 -3 14 -14 26
-29 26 -34z m20 -41 c0 -7 -71 -46 -83 -46 -7 0 6 12 28 25 38 24 55 30 55 21z
m-30 -56 c-8 -5 -17 -7 -19 -4 -3 3 1 9 9 14 8 5 17 7 19 4 3 -3 -1 -9 -9 -14z"/>
<path d="M7698 4404 c-3 -30 -1 -35 13 -31 12 3 19 -2 21 -16 2 -11 9 -22 16
-25 15 -5 17 44 1 53 -5 4 -14 18 -19 31 -14 35 -27 30 -32 -12z"/>
<path d="M7992 3849 c-23 -44 -27 -59 -16 -55 9 3 18 6 20 6 6 0 44 88 44 101
0 24 -20 3 -48 -52z"/>
<path d="M7840 3691 c0 -6 5 -13 11 -17 8 -4 7 -9 -2 -16 -11 -8 -11 -9 1 -5
21 5 26 47 6 47 -9 0 -16 -4 -16 -9z"/>
<path d="M7890 3650 c0 -5 5 -10 10 -10 6 0 10 5 10 10 0 6 -4 10 -10 10 -5 0
-10 -4 -10 -10z"/>
<path d="M7895 3610 c3 -5 8 -10 11 -10 2 0 4 5 4 10 0 6 -5 10 -11 10 -5 0
-7 -4 -4 -10z"/>
<path d="M7940 3610 c0 -5 5 -10 11 -10 5 0 7 5 4 10 -3 6 -8 10 -11 10 -2 0
-4 -4 -4 -10z"/>
<path d="M6415 3750 c10 -11 20 -20 23 -20 3 0 -3 9 -13 20 -10 11 -20 20 -23
20 -3 0 3 -9 13 -20z"/>
<path d="M6508 3458 c-7 -16 7 -45 14 -32 3 5 2 18 -2 28 -5 16 -8 17 -12 4z"/>
<path d="M2380 3254 l0 -165 31 21 c19 14 28 28 25 37 -3 8 -6 73 -6 144 l0
129 -25 0 -25 0 0 -166z"/>
<path d="M5800 3364 c0 -15 27 -50 34 -43 4 3 -2 17 -13 30 -11 13 -20 19 -21
13z"/>
<path d="M6030 3321 c-38 -12 -110 -59 -117 -77 -10 -28 13 -37 43 -18 l29 18
-19 -22 c-19 -22 -19 -22 9 -46 32 -27 59 -35 95 -26 17 4 21 8 12 14 -19 11
4 36 34 36 21 0 64 34 64 51 0 4 -8 8 -17 7 -10 0 -39 3 -65 7 -34 6 -54 3
-78 -9 -42 -21 -23 4 27 35 27 17 45 20 85 17 47 -5 49 -4 27 8 -26 15 -89 17
-129 5z m20 -112 c0 -5 -10 -9 -21 -9 -18 0 -19 2 -9 15 12 15 30 12 30 -6z"/>
<path d="M6319 3138 c-1 -2 -3 -16 -5 -32 -5 -49 -12 -60 -28 -47 -16 14 -28
1 -17 -18 9 -15 60 -5 62 13 7 57 7 86 -1 86 -6 0 -11 -1 -11 -2z"/>
<path d="M6020 3050 c0 -10 110 -76 142 -85 40 -12 68 -35 68 -55 0 -10 5 -22
10 -25 6 -4 10 5 10 20 0 46 -69 103 -156 130 -41 12 -74 19 -74 15z"/>
<path d="M6261 2834 c0 -11 3 -14 6 -6 3 7 2 16 -1 19 -3 4 -6 -2 -5 -13z"/>
<path d="M6510 2628 c0 -9 -5 -18 -11 -20 -7 -2 -10 -8 -8 -14 2 -5 11 -2 20
7 11 11 14 22 8 30 -7 11 -9 11 -9 -3z"/>
<path d="M6680 1880 c0 -5 5 -10 10 -10 6 0 10 5 10 10 0 6 -4 10 -10 10 -5 0
-10 -4 -10 -10z"/>
<path d="M6265 1200 c-3 -5 -1 -10 4 -10 6 0 11 5 11 10 0 6 -2 10 -4 10 -3 0
-8 -4 -11 -10z"/>
</g>
</svg>
